<?xml version="1.0" standalone="no"?>
<!DOCTYPE svg PUBLIC "-//W3C//DTD SVG 20010904//EN"
 "http://www.w3.org/TR/2001/REC-SVG-20010904/DTD/svg10.dtd">
<svg version="1.0" xmlns="http://www.w3.org/2000/svg"
 width="300.000000pt" height="300.000000pt" viewBox="0 0 300.000000 300.000000"
 preserveAspectRatio="xMidYMid meet">
<metadata>
Created by potrace 1.14, written by Peter Selinger 2001-2017
</metadata>
<g transform="translate(0.000000,300.000000) scale(0.100000,-0.100000)"
fill="#000000" stroke="none">
<path d="M1124 2386 c-41 -18 -102 -72 -120 -107 -9 -18 -14 -59 -14 -116 0
-106 -3 -101 162 -305 75 -91 126 -147 135 -144 7 3 39 27 72 52 l59 48 -129
159 c-108 133 -129 164 -129 192 0 24 7 39 27 54 32 26 56 20 100 -22 l32 -30
71 53 70 54 -42 43 c-61 62 -110 83 -194 83 -38 -1 -83 -7 -100 -14z"/>
<path d="M1680 2383 c-36 -19 -340 -259 -340 -269 0 -10 95 -123 104 -123 5
-1 72 50 150 113 174 139 179 141 217 126 52 -22 51 -93 0 -131 l-29 -22 51
-63 c28 -35 53 -64 57 -64 17 0 93 77 111 113 17 33 20 54 17 117 -2 66 -7 83
-33 120 -49 71 -95 94 -189 98 -63 3 -89 -1 -116 -15z"/>
<path d="M1660 1970 l-60 -51 125 -155 c129 -160 142 -186 111 -226 -7 -10
-27 -21 -43 -24 -24 -5 -35 0 -61 25 -17 17 -33 31 -37 31 -8 0 -125 -91 -125
-98 0 -18 69 -84 106 -102 37 -18 58 -21 123 -19 93 5 145 33 192 106 25 41
29 56 29 117 0 46 -7 84 -18 107 -22 47 -253 338 -269 339 -7 0 -39 -23 -73
-50z"/>
<path d="M1068 1770 c-64 -53 -78 -86 -78 -184 0 -97 10 -123 62 -172 53 -51
89 -64 170 -64 58 0 81 5 114 24 40 22 334 254 334 262 0 11 -96 124 -105 124
-5 0 -81 -56 -168 -125 -88 -69 -168 -125 -178 -125 -22 0 -69 45 -69 67 0 22
28 70 45 76 8 4 15 11 15 17 0 12 -90 130 -99 130 -4 0 -23 -14 -43 -30z"/>
<path d="M286 1003 c15 -27 33 -57 41 -68 7 -11 13 -36 13 -57 0 -34 3 -38 25
-38 22 0 25 4 25 40 0 29 11 58 40 105 l40 65 -33 0 c-29 0 -36 -5 -54 -42
l-20 -43 -22 43 c-18 36 -26 42 -52 42 l-31 0 28 -47z"/>
<path d="M507 1039 c-23 -13 -47 -62 -47 -94 0 -34 25 -82 49 -95 25 -13 107
-13 132 0 24 13 49 61 49 95 0 34 -25 82 -49 95 -25 13 -111 13 -134 -1z m103
-39 c38 -38 14 -130 -33 -130 -7 0 -23 7 -35 16 -17 12 -22 25 -22 59 0 34 5
47 22 59 30 21 44 20 68 -4z"/>
<path d="M718 1038 c-42 -33 -24 -94 32 -113 24 -8 35 -18 35 -31 0 -20 -19
-22 -62 -9 -17 5 -25 3 -29 -10 -9 -23 12 -35 67 -35 57 0 82 23 77 72 -3 28
-9 36 -46 53 -27 12 -41 25 -39 35 3 15 15 16 53 5 25 -8 43 23 22 37 -20 12
-92 9 -110 -4z"/>
<path d="M850 945 l0 -105 30 0 c29 0 30 2 30 45 l0 45 40 0 40 0 0 -45 c0
-43 1 -45 30 -45 l30 0 0 105 0 105 -30 0 c-29 0 -30 -2 -30 -45 l0 -45 -40 0
-40 0 0 45 c0 43 -1 45 -30 45 l-30 0 0 -105z"/>
<path d="M1080 945 l0 -105 25 0 25 0 0 105 0 105 -25 0 -25 0 0 -105z"/>
<path d="M1160 945 l0 -105 74 0 c66 0 76 3 100 26 21 22 26 36 26 79 0 43 -5
57 -26 79 -24 23 -34 26 -100 26 l-74 0 0 -105z m124 60 c47 -47 21 -135 -40
-135 -23 0 -24 2 -24 75 0 73 1 75 24 75 14 0 31 -7 40 -15z"/>
<path d="M1431 1028 c-5 -13 -23 -58 -40 -101 -17 -43 -31 -80 -31 -82 0 -3
13 -5 29 -5 22 0 30 6 35 25 5 21 12 25 45 25 33 0 40 -4 45 -25 5 -20 13 -25
36 -25 l30 0 -21 53 c-12 28 -30 76 -41 105 -18 46 -24 52 -50 52 -20 0 -31
-6 -37 -22z m54 -85 c5 -19 2 -23 -14 -23 -23 0 -24 3 -15 38 7 26 18 20 29
-15z"/>
<path d="M1620 1044 c0 -4 16 -32 35 -64 25 -41 35 -69 35 -99 0 -39 2 -41 30
-41 28 0 30 2 30 40 0 27 11 59 33 98 l32 57 3 -45 c6 -122 25 -150 100 -150
75 0 92 24 92 128 0 81 0 82 -25 82 -24 0 -25 -2 -25 -73 0 -78 -9 -97 -46
-97 -28 0 -34 17 -34 101 l0 69 -58 0 c-57 0 -59 -1 -78 -35 -10 -19 -21 -35
-24 -35 -3 0 -14 16 -24 35 -15 27 -25 35 -48 35 -15 0 -28 -3 -28 -6z"/>
<path d="M2047 1032 c-31 -34 -13 -102 28 -102 7 0 23 -8 35 -18 19 -15 20
-20 8 -30 -11 -9 -22 -9 -47 1 -26 10 -33 9 -41 -3 -15 -24 9 -40 61 -40 71 0
104 39 83 95 -4 9 -27 26 -51 36 -26 11 -43 24 -40 32 4 11 16 12 62 5 14 -2
20 3 20 17 0 17 -8 20 -51 23 -39 2 -54 -1 -67 -16z"/>
<path d="M2190 971 c0 -104 19 -131 90 -131 78 0 94 20 99 124 l3 86 -31 0
-31 0 0 -80 c0 -69 -3 -81 -20 -90 -15 -8 -24 -6 -40 10 -16 16 -20 33 -20 90
0 68 -1 70 -25 70 -25 0 -25 -1 -25 -79z"/>
<path d="M2400 945 l0 -105 29 0 c28 0 30 2 33 46 l3 47 33 -47 33 -46 110 0
c90 0 109 3 109 15 0 11 -12 15 -45 15 -43 0 -45 1 -45 30 0 28 3 30 35 30 24
0 35 5 35 15 0 10 -11 15 -35 15 -32 0 -35 2 -35 30 0 29 2 30 45 30 33 0 45
4 45 15 0 12 -15 15 -75 15 l-74 0 -3 -102 -3 -103 -39 53 c-42 58 -43 50 14
125 l22 27 -34 0 c-27 0 -38 -8 -63 -43 l-30 -42 -3 43 c-3 39 -5 42 -33 42
l-29 0 0 -105z"/>
</g>
</svg>
